PathFileType	3	(X/Y/Z)	C:\Users\koon_\Desktop\
DataRate	CameraRate	NumFrames	NumMarkers	Units	OrigDataRate	OrigDataStartFrame	OrigNumFrames
100.0	100.0	7	27	mm	100.0	1	3966	
Frame#	Time	GM:LFHD			GM:RFHD			GM:LBHD			GM:RBHD			GM:C7			GM:T10			GM:CLAV			GM:STRN			GM:RBAK			GM:LSHO			GM:LUPA			GM:LELB			GM:LFRA			GM:LWRA			GM:LWRB			GM:LFIN			GM:RSHO			GM:RUPA			GM:RELB			GM:RFRA			GM:RWRA			GM:RWRB			GM:RFIN			GM:LASI			GM:RASI			GM:LPSI			GM:RPSI			
		X1	Y1	Z1	X2	Y2	Z2	X3	Y3	Z3	X4	Y4	Z4	X5	Y5	Z5	X6	Y6	Z6	X7	Y7	Z7	X8	Y8	Z8	X9	Y9	Z9	X10	Y10	Z10	X11	Y11	Z11	X12	Y12	Z12	X13	Y13	Z13	X14	Y14	Z14	X15	Y15	Z15	X16	Y16	Z16	X17	Y17	Z17	X18	Y18	Z18	X19	Y19	Z19	X20	Y20	Z20	X21	Y21	Z21	X22	Y22	Z22	X23	Y23	Z23	X24	Y24	Z24	X25	Y25	Z25	X26	Y26	Z26	X27	Y27	Z27	
1	0	74.357018	1598.3854	-71.956352	-79.964531	1589.8062	-72.87706	76.445869	1579.78	-203.89645	-86.664063	1573.7941	-187.84911	-5.2039204	1417.4355	-244.9653	-4.2172766	1226.2648	-301.60922	9.3807201	1346.1436	-91.318207	10.333625	1198.6851	-51.562809	-100.90849	1307.1875	-291.21359	173.42671	1385.2542	-180.81703	236.42908	1279.3665	-173.66823	264.85385	1066.7657	-197.42282				207.42096	896.87573	-69.215439	259.90637	874.03186	-102.5922	213.71651	813.42224	-37.295444	-182.92036	1380.6062	-141.42795	-240.05791	1148.2258	-120.3291	-272.9899	1059.1461	-154.41876	-231.64165	1014.8091	-80.62748	-204.25027	891.78833	-35.930103	-252.64571	867.80957	-71.521492	-208.77888	806.92297	-5.3958969	145.11406	902.99951	-77.552956	-147.54599	905.41705	-67.225426	59.637711	946.08386	-289.13071	-78.277588	937.44104	-284.86069
2	0.01	74.419571	1598.3694	-71.933609	-79.828598	1589.7811	-72.872383	76.509224	1579.762	-203.8838	-86.637878	1573.7931	-187.85025	-5.1782193	1417.4359	-244.98534	-4.2314134	1226.2737	-301.66525	9.3836775	1346.2151	-91.312798	10.342096	1198.6658	-51.483097	-100.85786	1307.1943	-291.16147	173.48663	1385.2587	-180.79179	236.41457	1279.3784	-173.67386	264.87506	1066.7198	-197.42111				207.43419	896.89111	-69.255463	259.94986	874.052	-102.60086	213.75052	813.4043	-37.308483	-182.89189	1380.6263	-141.41951	-240.10941	1148.2999	-120.31732	-273.02484	1059.1619	-154.31561	-231.62016	1014.7899	-80.634377	-204.21518	891.90942	-36.05983	-252.65285	867.84192	-71.442764	-208.72301	806.94452	-5.3346338	145.09303	902.98297	-77.62883	-147.5349	905.43292	-67.243881	59.629383	946.06696	-289.07968	-78.284813	937.42365	-284.86038
3	0.02	74.509743	1598.3346	-71.930847	-79.607483	1589.8108	-72.797523	76.519897	1579.7545	-203.8573	-87.166763	1573.6749	-187.72424	-5.1747808	1417.42	-244.9857	-4.2315807	1226.2928	-301.66013	9.4515409	1346.2202	-91.262054	10.421132	1198.7423	-51.465389	-100.89091	1307.213	-291.13086	173.48946	1385.2596	-180.84108	236.38049	1279.3431	-173.67616	264.92767	1066.7621	-197.42744				207.44191	896.88843	-69.26088	259.98361	874.04376	-102.59023	213.80937	813.38269	-37.302002	-182.86412	1380.6677	-141.32104	-240.05293	1148.2986	-120.21834	-273.03979	1059.2068	-154.28345	-231.6011	1014.8443	-80.519981	-204.25218	891.8175	-35.994331	-252.67979	867.84692	-71.408302	-208.6864	806.96088	-5.3369226	145.13727	902.98151	-77.568474	-147.54657	905.41675	-67.22644	59.639812	946.03857	-289.12866	-78.307869	937.44385	-284.8718
4	0.03	74.538185	1598.2988	-71.931023	-79.798866	1589.7815	-72.8536	76.599014	1579.7473	-203.88286	-86.526466	1573.8159	-187.86279	-5.1747808	1417.42	-244.9857	-4.2314124	1226.2737	-301.66525	9.4791422	1346.2714	-91.215256	10.431127	1198.8152	-51.460102	-100.89091	1307.213	-291.13086	173.52982	1385.2439	-180.86288	236.41176	1279.3407	-173.65236	264.95551	1066.7308	-197.4192				207.46556	896.87531	-69.323395	260.01263	874.04205	-102.60609	213.80257	813.40076	-37.305031	-182.84767	1380.6658	-141.34203	-240.06276	1148.3711	-120.19298	-273.04904	1059.2218	-154.2003	-231.57693	1014.8792	-80.448433	-204.23393	891.88861	-36.049397	-252.66435	867.90594	-71.438446	-208.75014	806.94958	-5.2765369	145.17291	902.99622	-77.629951	-147.54657	905.41675	-67.22644	59.617558	946.01727	-289.16208	-78.284813	937.42365	-284.86038
5	0.04	74.540184	1598.2837	-71.923553	-79.529434	1589.7727	-72.714249	76.625565	1579.7738	-203.88261	-87.077728	1573.7091	-187.70384	-5.147284	1417.4406	-245.01566	-4.2057538	1226.2833	-301.72281	9.5128326	1346.298	-91.205544	10.50172	1198.8597	-51.4091	-100.88784	1307.2327	-291.13239	173.53596	1385.2463	-180.88431	236.46915	1279.373	-173.67268	264.95874	1066.7435	-197.41544				207.4847	896.83374	-69.272987	260.04825	874.05084	-102.51865	213.79829	813.4024	-37.298595	-182.79991	1380.7113	-141.2724	-240.02893	1148.4066	-120.12268	-273.04367	1059.2582	-154.18643	-231.57756	1014.8785	-80.447533	-204.13048	891.91748	-35.891129	-252.6535	867.9375	-71.342941	-208.64659	807.0415	-5.222374	145.23688	903.00104	-77.591614	-147.52737	905.41406	-67.251648	59.617348	946.06006	-289.18329	-78.281601	937.42957	-284.89838
6	0.05	74.630745	1598.2664	-71.916618	-79.455452	1589.8009	-72.742325	76.662148	1579.7533	-203.87032	-86.966034	1573.7494	-187.71509	-5.1187506	1417.4274	-245.03296	-4.206912	1226.2847	-301.72244	9.5283289	1346.3149	-91.220306	10.49201	1198.8821	-51.415493	-100.89169	1307.2395	-291.18469	173.56253	1385.2701	-180.93459	236.49457	1279.3788	-173.71759	265.00116	1066.7479	-197.39908				207.52803	896.93188	-69.25238	260.05783	874.06183	-102.51057	213.83891	813.40942	-37.281319	-182.77052	1380.7277	-141.25584	-240.04546	1148.4055	-120.1077	-273.03113	1059.317	-154.08501	-231.58853	1014.9017	-80.450119	-204.114	891.9115	-35.904671	-252.67955	867.9411	-71.307602	-208.63893	807.02277	-5.2008224	145.267	902.95825	-77.604958	-147.5121	905.41583	-67.196739	59.618649	946.0639	-289.21613	-78.288567	937.43524	-284.9342
7	0.06	74.690437	1598.2692	-71.934975	-79.452843	1589.7832	-72.742516	76.699921	1579.7542	-203.88411	-86.934685	1573.715	-187.71854	-5.1182575	1417.429	-245.03085	-4.1793294	1226.2855	-301.72116	9.5727091	1346.3341	-91.213501	10.532561	1198.9308	-51.37595	-100.89088	1307.2343	-291.13181	173.57257	1385.2725	-180.95767	236.51337	1279.3798	-173.71428	265.01807	1066.7351	-197.39555				207.55069	896.92212	-69.205772	260.10767	874.07959	-102.51927	213.83551	813.41156	-37.273861	-182.77202	1380.7533	-141.25464	-240.02612	1148.4282	-120.00937	-273.06482	1059.3326	-153.97615	-231.51938	1014.9534	-80.32634	-204.1055	891.87921	-35.84832	-252.66806	867.97278	-71.214409	-208.6111	807.09814	-5.1744685	145.24773	902.95605	-77.70118	-147.47107	905.41235	-67.189491	59.639164	946.07269	-289.26431	-78.289513	937.4364	-284.93845
